# xmcd
#
# Track frame offsets:
#	183
#	12595
#	23075
#	35543
#	48053
#	62445
#	73698
#	84763
#	98465
#	110258
#	123745
#	145265
#	155875
#	172628
#	183598
#	195920
#
# Disc length: 2793 seconds
#
# Revision: 1
# Processed by: cddbd v1.5PL3 Copyright (c) Steve Scherf et al.
# Submitted via: EasyCDDAExtractor 6.5.7.1
#
DISCID=c40ae710
DTITLE=Howard Carpendale - Die Sory 1963-70
DYEAR=1900
DGENRE=Schlager
TTITLE0=Endless Sleep
TTITLE1=Lebenslänglich
TTITLE2=Stand by Me
TTITLE3=Immer nur an Eine denken
TTITLE4=Ob-la-di, Ob-la-da
TTITLE5=Und dann tanz ich mit Dir allein
TTITLE6=Ich geb mir selbst 'ne Party
TTITLE7=Schliess Deine Augen und schau in mein Herz
TTITLE8=Indianapolis
TTITLE9=Armer, alter, reicher Mann
TTITLE10=Angelique
TTITLE11=Das schöne Mädchen von Seite 1
TTITLE12=Schwedenmädchen
TTITLE13=Grand Prix
TTITLE14=Ich hab' mein Glück gefunden
TTITLE15=Sie kommt noch heut'
EXTD=
EXTT0=
EXTT1=
EXTT2=
EXTT3=
EXTT4=
EXTT5=
EXTT6=
EXTT7=
EXTT8=
EXTT9=
EXTT10=
EXTT11=
EXTT12=
EXTT13=
EXTT14=
EXTT15=
PLAYORDER=
